<svg xmlns="http://www.w3.org/2000/svg" width="64" height="64" viewBox="0 0 64 64" shape-rendering="crispEdges" role="img" aria-label="Identicon for 0xdbF03B...C6FB"><g><rect width="64" height="64" fill="#8F3280"/><rect x="0" y="0" width="8" height="8" fill="#093068"/><rect x="16" y="0" width="8" height="8" fill="#7523DA"/><rect x="40" y="0" width="8" height="8" fill="#7523DA"/><rect x="56" y="0" width="8" height="8" fill="#093068"/><rect x="8" y="8" width="8" height="8" fill="#093068"/><rect x="16" y="8" width="8" height="8" fill="#093068"/><rect x="24" y="8" width="8" height="8" fill="#093068"/><rect x="32" y="8" width="8" height="8" fill="#093068"/><rect x="40" y="8" width="8" height="8" fill="#093068"/><rect x="48" y="8" width="8" height="8" fill="#093068"/><rect x="8" y="16" width="8" height="8" fill="#093068"/><rect x="16" y="16" width="8" height="8" fill="#093068"/><rect x="24" y="16" width="8" height="8" fill="#7523DA"/><rect x="32" y="16" width="8" height="8" fill="#7523DA"/><rect x="40" y="16" width="8" height="8" fill="#093068"/><rect x="48" y="16" width="8" height="8" fill="#093068"/><rect x="8" y="24" width="8" height="8" fill="#093068"/><rect x="24" y="24" width="8" height="8" fill="#7523DA"/><rect x="32" y="24" width="8" height="8" fill="#7523DA"/><rect x="48" y="24" width="8" height="8" fill="#093068"/><rect x="0" y="32" width="8" height="8" fill="#7523DA"/><rect x="8" y="32" width="8" height="8" fill="#093068"/><rect x="16" y="32" width="8" height="8" fill="#7523DA"/><rect x="40" y="32" width="8" height="8" fill="#7523DA"/><rect x="48" y="32" width="8" height="8" fill="#093068"/><rect x="56" y="32" width="8" height="8" fill="#7523DA"/><rect x="8" y="40" width="8" height="8" fill="#093068"/><rect x="16" y="40" width="8" height="8" fill="#7523DA"/><rect x="24" y="40" width="8" height="8" fill="#093068"/><rect x="32" y="40" width="8" height="8" fill="#093068"/><rect x="40" y="40" width="8" height="8" fill="#7523DA"/><rect x="48" y="40" width="8" height="8" fill="#093068"/><rect x="0" y="48" width="8" height="8" fill="#093068"/><rect x="16" y="48" width="8" height="8" fill="#093068"/><rect x="24" y="48" width="8" height="8" fill="#093068"/><rect x="32" y="48" width="8" height="8" fill="#093068"/><rect x="40" y="48" width="8" height="8" fill="#093068"/><rect x="56" y="48" width="8" height="8" fill="#093068"/><rect x="0" y="56" width="8" height="8" fill="#093068"/><rect x="8" y="56" width="8" height="8" fill="#093068"/><rect x="24" y="56" width="8" height="8" fill="#093068"/><rect x="32" y="56" width="8" height="8" fill="#093068"/><rect x="48" y="56" width="8" height="8" fill="#093068"/><rect x="56" y="56" width="8" height="8" fill="#093068"/></g></svg>
