<svg xmlns="http://www.w3.org/2000/svg" width="64" height="64" viewBox="0 0 64 64" shape-rendering="crispEdges" role="img" aria-label="Identicon for 0x5aAeb6...eAed"><g><rect width="64" height="64" fill="#0EFEAE"/><rect x="0" y="0" width="8" height="8" fill="#416D99"/><rect x="8" y="0" width="8" height="8" fill="#416D99"/><rect x="16" y="0" width="8" height="8" fill="#1341AE"/><rect x="24" y="0" width="8" height="8" fill="#1341AE"/><rect x="32" y="0" width="8" height="8" fill="#1341AE"/><rect x="40" y="0" width="8" height="8" fill="#1341AE"/><rect x="48" y="0" width="8" height="8" fill="#416D99"/><rect x="56" y="0" width="8" height="8" fill="#416D99"/><rect x="8" y="8" width="8" height="8" fill="#1341AE"/><rect x="24" y="8" width="8" height="8" fill="#416D99"/><rect x="32" y="8" width="8" height="8" fill="#416D99"/><rect x="48" y="8" width="8" height="8" fill="#1341AE"/><rect x="8" y="16" width="8" height="8" fill="#1341AE"/><rect x="16" y="16" width="8" height="8" fill="#1341AE"/><rect x="40" y="16" width="8" height="8" fill="#1341AE"/><rect x="48" y="16" width="8" height="8" fill="#1341AE"/><rect x="16" y="24" width="8" height="8" fill="#1341AE"/><rect x="24" y="24" width="8" height="8" fill="#1341AE"/><rect x="32" y="24" width="8" height="8" fill="#1341AE"/><rect x="40" y="24" width="8" height="8" fill="#1341AE"/><rect x="8" y="40" width="8" height="8" fill="#1341AE"/><rect x="16" y="40" width="8" height="8" fill="#416D99"/><rect x="24" y="40" width="8" height="8" fill="#1341AE"/><rect x="32" y="40" width="8" height="8" fill="#1341AE"/><rect x="40" y="40" width="8" height="8" fill="#416D99"/><rect x="48" y="40" width="8" height="8" fill="#1341AE"/><rect x="16" y="48" width="8" height="8" fill="#1341AE"/><rect x="24" y="48" width="8" height="8" fill="#416D99"/><rect x="32" y="48" width="8" height="8" fill="#416D99"/><rect x="40" y="48" width="8" height="8" fill="#1341AE"/><rect x="0" y="56" width="8" height="8" fill="#1341AE"/><rect x="16" y="56" width="8" height="8" fill="#1341AE"/><rect x="40" y="56" width="8" height="8" fill="#1341AE"/><rect x="56" y="56" width="8" height="8" fill="#1341AE"/></g></svg>
